<svg version="1.1" id="Layer_1" xmlns="http://www.w3.org/2000/svg" x="0" y="0" viewBox="0 0 125.6 76.4" xml:space="preserve"><style>.st0{fill:#c10c1a}</style><g id="XMLID_3_"><g id="XMLID_7_"><path class="st0" d="M99.5 62.3c-1.7 0-3.3-1.1-3.8-2.8-.7-2.1.5-4.4 2.6-5 18.9-6 19.2-10.6 19.3-13.1.2-3.9-2.8-8.9-4-10.6-1.3-1.8-.9-4.3.9-5.6 1.8-1.3 4.3-.9 5.6.9.6.8 6 8.3 5.5 15.8-.5 9.1-7.5 14.7-24.9 20.3-.4 0-.8.1-1.2.1z" id="XMLID_26_"/></g><g id="XMLID_8_"><path class="st0" d="M45.2 76.4c-1.2 0-2.4-.5-3.1-1.5-1.4-1.7-1.1-4.3.7-5.6C51 62.8 56.5 57 60.1 51.9c-2-1-4.1-2.5-5.2-5-1-2.3-1.6-6.1 1.9-11.2 5-7.4 10-9.1 11.9-9.5 2.6-.5 5.1 1 5.8 3.5.5 1.8 1.7 7.5-1.9 16.2 4.8-.1 8.6-1.4 11.5-3.8C89.7 37.6 90 30 90 29.9c.1-2.2 1.9-3.9 4.1-3.9 2.2.1 3.9 1.9 3.9 4.1 0 .4-.4 11.1-8.7 18.1-5.2 4.4-12.3 6.3-20.9 5.6-4.1 6.3-10.6 13.7-20.7 21.7-.8.6-1.6.9-2.5.9zM66.9 36c-1.1.9-2.3 2.2-3.6 4.2-1.3 2-1.4 3.1-1.3 3.4.2.5 1.2 1 2.2 1.4 1.9-3.8 2.5-6.8 2.7-9z" id="XMLID_23_"/></g><g id="XMLID_9_"><path class="st0" d="M42.2 54.9h-.6c-2.2-.3-3.7-2.4-3.4-4.6 2.7-17.8 3.6-46.2 3.6-46.4.2-2.2 1.9-4 4.2-3.9 2.2.1 3.9 1.9 3.9 4.1 0 1.2-1 29.1-3.7 47.4-.3 2-2 3.4-4 3.4z" id="XMLID_22_"/></g><g id="XMLID_11_"><path class="st0" d="M4 76.4c-1.2 0-2.5-.6-3.2-1.6-1.3-1.8-.9-4.3.9-5.6 22.1-16.1 23.1-36.6 23.1-37.4.1-2.2 1.9-4 4.1-3.9 2.2.1 3.9 1.9 3.9 4.1 0 1-1 25.2-26.4 43.7-.8.5-1.6.7-2.4.7z" id="XMLID_21_"/></g><g id="XMLID_13_"><path d="M71.9 68c-2.1 0-3.9-1.7-4-3.9-.1-2.2 1.6-4.1 3.8-4.2.1 0 6.4-.3 15.3-2.2 2.2-.5 4.3.9 4.8 3.1s-.9 4.3-3.1 4.8C79.1 67.8 72.4 68 72.1 68h-.2z" fill="#575756" id="XMLID_20_"/></g></g></svg>